<svg width="25" height="25" viewBox="0 0 25 25" fill="none" xmlns="http://www.w3.org/2000/svg">
<mask id="mask0_272_117" style="mask-type:alpha" maskUnits="userSpaceOnUse" x="0" y="0" width="25" height="25">
<rect x="0.929688" y="0.988281" width="24" height="24" fill="#D9D9D9"/>
</mask>
<g mask="url(#mask0_272_117)">
<path d="M12.9278 17.163L16.8278 13.288C17.0112 13.1047 17.2403 13.0088 17.5153 13.0005C17.7903 12.9922 18.0278 13.088 18.2278 13.288C18.4112 13.4713 18.5028 13.7047 18.5028 13.988C18.5028 14.2713 18.4112 14.5047 18.2278 14.688L13.6278 19.288C13.5278 19.388 13.4195 19.4588 13.3028 19.5005C13.1862 19.5422 13.0612 19.563 12.9278 19.563C12.7945 19.563 12.6695 19.5422 12.5528 19.5005C12.4362 19.4588 12.3278 19.388 12.2278 19.288L7.62784 14.688C7.44451 14.5047 7.34868 14.2755 7.34034 14.0005C7.33201 13.7255 7.42784 13.488 7.62784 13.288C7.81118 13.1047 8.04451 13.013 8.32784 13.013C8.61118 13.013 8.84451 13.1047 9.02784 13.288L12.9278 17.163ZM12.9278 11.163L16.8278 7.288C17.0112 7.10467 17.2403 7.00883 17.5153 7.0005C17.7903 6.99217 18.0278 7.088 18.2278 7.288C18.4112 7.47133 18.5028 7.70467 18.5028 7.988C18.5028 8.27133 18.4112 8.50467 18.2278 8.688L13.6278 13.288C13.5278 13.388 13.4195 13.4588 13.3028 13.5005C13.1862 13.5422 13.0612 13.563 12.9278 13.563C12.7945 13.563 12.6695 13.5422 12.5528 13.5005C12.4362 13.4588 12.3278 13.388 12.2278 13.288L7.62784 8.688C7.44451 8.50467 7.34868 8.2755 7.34034 8.0005C7.33201 7.7255 7.42784 7.488 7.62784 7.288C7.81118 7.10467 8.04451 7.013 8.32784 7.013C8.61118 7.013 8.84451 7.10467 9.02784 7.288L12.9278 11.163Z" fill="white"/>
</g>
</svg>
