<svg width="194" height="47" viewBox="0 0 194 47" fill="none" xmlns="http://www.w3.org/2000/svg">
<path d="M26.8076 37H25.1963L22.6084 33.4111C21.9736 33.9808 21.2982 34.5179 20.582 35.0225C19.8822 35.5107 19.1416 35.9421 18.3604 36.3164C17.5791 36.6745 16.7734 36.9593 15.9434 37.1709C15.1296 37.3825 14.2995 37.4883 13.4531 37.4883C11.6139 37.4883 9.88053 37.1465 8.25293 36.4629C6.6416 35.763 5.22559 34.8027 4.00488 33.582C2.80046 32.3451 1.84831 30.8883 1.14844 29.2119C0.448568 27.5192 0.0986328 25.68 0.0986328 23.6943C0.0986328 21.7249 0.448568 19.8939 1.14844 18.2012C1.84831 16.5085 2.80046 15.0436 4.00488 13.8066C5.22559 12.5697 6.6416 11.6012 8.25293 10.9014C9.88053 10.2015 11.6139 9.85156 13.4531 9.85156C14.0391 9.85156 14.6413 9.90039 15.2598 9.99805C15.8945 10.0957 16.5049 10.2585 17.0908 10.4863C17.693 10.6979 18.2546 10.9827 18.7754 11.3408C19.2962 11.6989 19.7357 12.1383 20.0938 12.6592V0.452148H26.8076V37ZM20.0938 23.6943C20.0938 22.7829 19.9147 21.904 19.5566 21.0576C19.2148 20.195 18.7428 19.4382 18.1406 18.7871C17.5384 18.1198 16.8304 17.5908 16.0166 17.2002C15.2191 16.7933 14.3646 16.5898 13.4531 16.5898C12.5417 16.5898 11.679 16.7526 10.8652 17.0781C10.0677 17.4036 9.36784 17.8757 8.76562 18.4941C8.17969 19.0964 7.71582 19.8369 7.37402 20.7158C7.03223 21.5947 6.86133 22.5876 6.86133 23.6943C6.86133 24.6546 7.03223 25.5661 7.37402 26.4287C7.71582 27.2913 8.17969 28.0482 8.76562 28.6992C9.36784 29.3503 10.0677 29.863 10.8652 30.2373C11.679 30.6117 12.5417 30.7988 13.4531 30.7988C14.3646 30.7988 15.2191 30.6035 16.0166 30.2129C16.8304 29.806 17.5384 29.277 18.1406 28.626C18.7428 27.9587 19.2148 27.2018 19.5566 26.3555C19.9147 25.4928 20.0938 24.6058 20.0938 23.6943ZM54.7617 16.0527L49.8789 20.96C49.6348 20.2764 49.3011 19.666 48.8779 19.1289C48.4548 18.5755 47.9746 18.1117 47.4375 17.7373C46.9167 17.363 46.347 17.0781 45.7285 16.8828C45.11 16.6875 44.4753 16.5898 43.8242 16.5898C42.9128 16.5898 42.0501 16.777 41.2363 17.1514C40.4388 17.5257 39.7389 18.0547 39.1367 18.7383C38.5508 19.4056 38.0869 20.2031 37.7451 21.1309C37.4033 22.0586 37.2324 23.084 37.2324 24.207C37.2324 25.1185 37.4033 25.973 37.7451 26.7705C38.0869 27.568 38.5508 28.2679 39.1367 28.8701C39.7389 29.4723 40.4388 29.9443 41.2363 30.2861C42.0501 30.6279 42.9128 30.7988 43.8242 30.7988C44.4753 30.7988 45.1019 30.7093 45.7041 30.5303C46.3063 30.3512 46.8678 30.099 47.3887 29.7734C47.9258 29.4316 48.3978 29.0247 48.8047 28.5527C49.2279 28.0645 49.5697 27.5273 49.8301 26.9414L54.7129 31.8486C54.0944 32.7275 53.3783 33.5169 52.5645 34.2168C51.7669 34.9167 50.8962 35.5107 49.9521 35.999C49.0244 36.4873 48.0397 36.8535 46.998 37.0977C45.9727 37.3581 44.9147 37.4883 43.8242 37.4883C41.985 37.4883 40.2516 37.1465 38.624 36.4629C37.0127 35.763 35.5967 34.8109 34.376 33.6064C33.1715 32.402 32.2194 30.9941 31.5195 29.3828C30.8197 27.7715 30.4697 26.0462 30.4697 24.207C30.4697 22.2051 30.8197 20.3333 31.5195 18.5918C32.2194 16.8503 33.1715 15.3366 34.376 14.0508C35.5967 12.7487 37.0127 11.7233 38.624 10.9746C40.2516 10.2259 41.985 9.85156 43.8242 9.85156C44.9147 9.85156 45.9808 9.98991 47.0225 10.2666C48.0804 10.5433 49.0814 10.9502 50.0254 11.4873C50.9857 12.0081 51.8646 12.651 52.6621 13.416C53.4759 14.181 54.1758 15.0599 54.7617 16.0527ZM68.043 30.6035C68.3034 30.6849 68.5638 30.7419 68.8242 30.7744C69.0846 30.7907 69.3451 30.7988 69.6055 30.7988C70.2565 30.7988 70.8831 30.7093 71.4854 30.5303C72.0876 30.3512 72.6491 30.099 73.1699 29.7734C73.707 29.4316 74.179 29.0247 74.5859 28.5527C75.0091 28.0645 75.3509 27.5273 75.6113 26.9414L80.4941 31.8486C79.8757 32.7275 79.1595 33.5169 78.3457 34.2168C77.5482 34.9167 76.6774 35.5107 75.7334 35.999C74.8057 36.4873 73.821 36.8535 72.7793 37.0977C71.7539 37.3581 70.696 37.4883 69.6055 37.4883C67.7663 37.4883 66.0329 37.1465 64.4053 36.4629C62.7939 35.7793 61.3779 34.8271 60.1572 33.6064C58.9528 32.3857 58.0007 30.9372 57.3008 29.2607C56.6009 27.568 56.251 25.7126 56.251 23.6943C56.251 21.6273 56.6009 19.7393 57.3008 18.0303C58.0007 16.3213 58.9528 14.8646 60.1572 13.6602C61.3779 12.4557 62.7939 11.5199 64.4053 10.8525C66.0329 10.1852 67.7663 9.85156 69.6055 9.85156C70.696 9.85156 71.762 9.98177 72.8037 10.2422C73.8454 10.5026 74.8301 10.877 75.7578 11.3652C76.7018 11.8535 77.5807 12.4557 78.3945 13.1719C79.2083 13.8717 79.9245 14.6611 80.543 15.54L68.043 30.6035ZM71.4609 16.8584C71.1517 16.7445 70.8424 16.6712 70.5332 16.6387C70.2402 16.6061 69.931 16.5898 69.6055 16.5898C68.694 16.5898 67.8314 16.7607 67.0176 17.1025C66.2201 17.4281 65.5202 17.9001 64.918 18.5186C64.332 19.137 63.8682 19.8857 63.5264 20.7646C63.1846 21.6273 63.0137 22.6038 63.0137 23.6943C63.0137 23.9385 63.0218 24.2152 63.0381 24.5244C63.0706 24.8337 63.1113 25.151 63.1602 25.4766C63.2253 25.7858 63.2985 26.0869 63.3799 26.3799C63.4613 26.6729 63.5671 26.9333 63.6973 27.1611L71.4609 16.8584ZM90.2109 46.9609V40.2471L93.9219 40.2959C94.5729 40.2959 95.1995 40.1901 95.8018 39.9785C96.404 39.7669 96.9574 39.474 97.4619 39.0996C97.9827 38.7253 98.4385 38.2777 98.8291 37.7568C99.2197 37.2523 99.5371 36.6989 99.7812 36.0967C99.0488 36.4059 98.3001 36.7152 97.5352 37.0244C96.7865 37.3337 96.0296 37.4883 95.2646 37.4883C93.6533 37.4883 92.1396 37.2035 90.7236 36.6338C89.3076 36.0641 88.0625 35.2585 86.9883 34.2168C85.9303 33.1589 85.0921 31.8812 84.4736 30.3838C83.8714 28.8701 83.5703 27.1774 83.5703 25.3057V10.8525H90.2109V25.3057C90.2109 26.2334 90.3411 27.0472 90.6016 27.7471C90.8783 28.4307 91.2445 29.0085 91.7002 29.4805C92.1559 29.9362 92.6849 30.278 93.2871 30.5059C93.9056 30.7337 94.5648 30.8477 95.2646 30.8477C95.9482 30.8477 96.5911 30.693 97.1934 30.3838C97.8118 30.0583 98.349 29.6351 98.8047 29.1143C99.2604 28.5934 99.6185 28.0075 99.8789 27.3564C100.139 26.6891 100.27 26.0055 100.27 25.3057V10.8525H106.983V33.7041C106.967 35.5433 106.609 37.2686 105.909 38.8799C105.209 40.4912 104.249 41.8991 103.028 43.1035C101.824 44.3079 100.416 45.2601 98.8047 45.96C97.1934 46.6598 95.4681 47.0098 93.6289 47.0098L90.2109 46.9609ZM122.486 30.6035C122.747 30.6849 123.007 30.7419 123.268 30.7744C123.528 30.7907 123.788 30.7988 124.049 30.7988C124.7 30.7988 125.326 30.7093 125.929 30.5303C126.531 30.3512 127.092 30.099 127.613 29.7734C128.15 29.4316 128.622 29.0247 129.029 28.5527C129.452 28.0645 129.794 27.5273 130.055 26.9414L134.938 31.8486C134.319 32.7275 133.603 33.5169 132.789 34.2168C131.992 34.9167 131.121 35.5107 130.177 35.999C129.249 36.4873 128.264 36.8535 127.223 37.0977C126.197 37.3581 125.139 37.4883 124.049 37.4883C122.21 37.4883 120.476 37.1465 118.849 36.4629C117.237 35.7793 115.821 34.8271 114.601 33.6064C113.396 32.3857 112.444 30.9372 111.744 29.2607C111.044 27.568 110.694 25.7126 110.694 23.6943C110.694 21.6273 111.044 19.7393 111.744 18.0303C112.444 16.3213 113.396 14.8646 114.601 13.6602C115.821 12.4557 117.237 11.5199 118.849 10.8525C120.476 10.1852 122.21 9.85156 124.049 9.85156C125.139 9.85156 126.205 9.98177 127.247 10.2422C128.289 10.5026 129.273 10.877 130.201 11.3652C131.145 11.8535 132.024 12.4557 132.838 13.1719C133.652 13.8717 134.368 14.6611 134.986 15.54L122.486 30.6035ZM125.904 16.8584C125.595 16.7445 125.286 16.6712 124.977 16.6387C124.684 16.6061 124.374 16.5898 124.049 16.5898C123.137 16.5898 122.275 16.7607 121.461 17.1025C120.663 17.4281 119.964 17.9001 119.361 18.5186C118.775 19.137 118.312 19.8857 117.97 20.7646C117.628 21.6273 117.457 22.6038 117.457 23.6943C117.457 23.9385 117.465 24.2152 117.481 24.5244C117.514 24.8337 117.555 25.151 117.604 25.4766C117.669 25.7858 117.742 26.0869 117.823 26.3799C117.905 26.6729 118.01 26.9333 118.141 27.1611L125.904 16.8584ZM171.363 27.5518C171.363 28.9189 171.103 30.2129 170.582 31.4336C170.061 32.638 169.345 33.6878 168.434 34.583C167.538 35.4782 166.48 36.1862 165.26 36.707C164.055 37.2279 162.761 37.4883 161.378 37.4883C160.141 37.4883 158.953 37.2767 157.813 36.8535C156.674 36.4141 155.641 35.7793 154.713 34.9492C153.801 35.7793 152.776 36.4141 151.637 36.8535C150.514 37.2767 149.326 37.4883 148.072 37.4883C146.689 37.4883 145.395 37.2279 144.19 36.707C142.986 36.1862 141.928 35.4782 141.017 34.583C140.121 33.6878 139.413 32.638 138.893 31.4336C138.372 30.2129 138.111 28.9189 138.111 27.5518V10.9014H144.776V27.5518C144.776 28.0075 144.858 28.4388 145.021 28.8457C145.2 29.2363 145.436 29.5863 145.729 29.8955C146.038 30.1885 146.388 30.4245 146.778 30.6035C147.185 30.7663 147.617 30.8477 148.072 30.8477C148.528 30.8477 148.959 30.7663 149.366 30.6035C149.773 30.4245 150.131 30.1885 150.44 29.8955C150.75 29.5863 150.986 29.2363 151.148 28.8457C151.327 28.4388 151.417 28.0075 151.417 27.5518V10.9014H158.058V27.5518C158.058 28.0075 158.147 28.4388 158.326 28.8457C158.505 29.2363 158.741 29.5863 159.034 29.8955C159.343 30.1885 159.693 30.4245 160.084 30.6035C160.491 30.7663 160.922 30.8477 161.378 30.8477C161.834 30.8477 162.265 30.7663 162.672 30.6035C163.079 30.4245 163.429 30.1885 163.722 29.8955C164.031 29.5863 164.275 29.2363 164.454 28.8457C164.633 28.4388 164.723 28.0075 164.723 27.5518V10.9014H171.363V27.5518ZM182.862 37H176.197V10.8525H177.809L180.006 13.9531C181.08 12.9766 182.301 12.2279 183.668 11.707C185.035 11.1699 186.451 10.9014 187.916 10.9014H193.8V17.542H187.916C187.216 17.542 186.557 17.6722 185.938 17.9326C185.32 18.193 184.783 18.5511 184.327 19.0068C183.871 19.4626 183.513 19.9997 183.253 20.6182C182.993 21.2367 182.862 21.8958 182.862 22.5957V37Z" fill="#E7CDA1"/>
</svg>
