<svg width="200" height="100" viewBox="0 0 200 100" fill="none" xmlns="http://www.w3.org/2000/svg">
<g clip-path="url(#clip0_268_77)">
<path d="M199.999 45.3633H182.785V59.3281H199.999V45.3633Z" fill="#152350"/>
<path d="M17.2143 45.3633H0V59.3281H17.2143V45.3633Z" fill="#152350"/>
<path d="M163.638 74.6891C158.067 80.6628 150.792 84.2417 142.654 84.991C138.366 85.3854 134.043 84.9301 129.931 83.6514C125.82 82.3727 122.001 80.2955 118.693 77.5389C115.385 74.7823 112.654 71.4004 110.655 67.5867C108.656 63.7731 107.428 59.6026 107.043 55.314C106.993 54.7573 106.956 54.2023 106.934 53.6489C106.916 53.2026 106.906 52.7546 106.906 52.3099C106.906 51.8652 106.906 51.4502 106.934 51.0236C106.934 50.8935 106.934 50.7617 106.951 50.6333C107.774 34.6229 120.291 21.1951 136.717 19.7029C141.686 19.2378 146.695 19.9197 151.359 21.696C156.023 23.4724 160.217 26.2959 163.617 29.9488L173.45 20.1064C163.383 9.71392 149.884 4.54568 135.46 5.85503C124.709 6.82271 114.629 11.5021 106.951 19.0902V0H93.047V19.1347C84.3263 10.4973 72.5462 5.65501 60.272 5.66233C34.5296 5.66233 13.5899 26.6054 13.5899 52.3445C13.5849 58.476 14.7888 64.5483 17.1329 70.2141C19.4769 75.8799 22.915 81.0279 27.2505 85.3637C31.5859 89.6995 36.7337 93.1379 42.3993 95.4824C48.065 97.8268 54.1372 99.0312 60.2687 99.0266C77.0021 99.0266 91.7064 90.179 99.9512 76.9142C104.519 84.2906 111.052 90.2489 118.816 94.1211C126.581 97.9933 135.27 99.6264 143.911 98.8372C155.514 97.7832 164.982 93.1535 173.473 84.52L163.638 74.6891ZM60.2687 85.1228C55.9636 85.1265 51.7 84.2812 47.7219 82.6354C43.7438 80.9896 40.1292 78.5756 37.0851 75.5314C34.0409 72.4872 31.6269 68.8727 29.9811 64.8946C28.3353 60.9165 27.49 56.6529 27.4937 52.3478C27.4937 34.2754 42.1996 19.5728 60.2687 19.5728C77.8915 19.5728 92.3009 33.5458 93.019 50.9857C93.019 50.7288 93.0371 50.4735 93.047 50.2182V52.3511C93.047 52.7991 93.0382 53.2437 93.0207 53.6851C92.319 71.1349 77.8947 85.1228 60.2687 85.1228Z" fill="#00B5EC"/>
<mask id="mask0_268_77" style="mask-type:luminance" maskUnits="userSpaceOnUse" x="13" y="0" width="161" height="100">
<path d="M163.638 74.6891C158.067 80.6628 150.792 84.2417 142.654 84.991C138.366 85.3854 134.043 84.9301 129.931 83.6514C125.82 82.3727 122.001 80.2955 118.693 77.5389C115.385 74.7823 112.654 71.4004 110.655 67.5867C108.656 63.7731 107.428 59.6026 107.043 55.314C106.993 54.7573 106.956 54.2023 106.934 53.6489C106.916 53.2026 106.906 52.7546 106.906 52.3099C106.906 51.8652 106.906 51.4502 106.934 51.0236C106.934 50.8935 106.934 50.7617 106.951 50.6333C107.774 34.6229 120.291 21.1951 136.717 19.7029C141.686 19.2377 146.695 19.9197 151.359 21.696C156.023 23.4724 160.217 26.2959 163.617 29.9488L173.45 20.1064C163.383 9.71392 149.884 4.54568 135.46 5.85503C124.709 6.82271 114.629 11.5021 106.951 19.0902V0H93.047V19.1347C84.3263 10.4973 72.5462 5.65501 60.272 5.66233C34.5296 5.66233 13.5899 26.6054 13.5899 52.3445C13.5849 58.476 14.7888 64.5483 17.1329 70.2141C19.4769 75.8799 22.915 81.0279 27.2505 85.3637C31.5859 89.6995 36.7337 93.1379 42.3993 95.4824C48.065 97.8268 54.1372 99.0312 60.2687 99.0266C77.0021 99.0266 91.7064 90.179 99.9512 76.9142C104.519 84.2906 111.052 90.2489 118.816 94.1211C126.581 97.9933 135.27 99.6263 143.911 98.8372C155.514 97.7832 164.982 93.1535 173.473 84.52L163.638 74.6891ZM60.2687 85.1228C55.9636 85.1265 51.7 84.2812 47.7219 82.6354C43.7438 80.9896 40.1292 78.5756 37.0851 75.5314C34.0409 72.4872 31.6269 68.8727 29.9811 64.8946C28.3353 60.9165 27.49 56.6529 27.4937 52.3478C27.4937 34.2754 42.1996 19.5728 60.2687 19.5728C77.8915 19.5728 92.3009 33.5458 93.019 50.9857C93.019 50.7288 93.0371 50.4735 93.047 50.2182V52.3511C93.047 52.7991 93.0382 53.2437 93.0207 53.6851C92.319 71.1349 77.8947 85.1228 60.2687 85.1228Z" fill="white"/>
</mask>
<g mask="url(#mask0_268_77)">
<path style="mix-blend-mode:lighten" opacity="0.4" d="M60.2693 92.0737C82.2117 92.0737 99.9995 74.2859 99.9995 52.3435C99.9995 30.4011 82.2117 12.6133 60.2693 12.6133C38.3269 12.6133 20.5391 30.4011 20.5391 52.3435C20.5391 74.2859 38.3269 92.0737 60.2693 92.0737Z" fill="url(#paint0_linear_268_77)"/>
<path style="mix-blend-mode:lighten" opacity="0.4" d="M139.703 92.0737C161.645 92.0737 179.433 74.2859 179.433 52.3435C179.433 30.4011 161.645 12.6133 139.703 12.6133C117.76 12.6133 99.9727 30.4011 99.9727 52.3435C99.9727 74.2859 117.76 92.0737 139.703 92.0737Z" fill="url(#paint1_linear_268_77)"/>
</g>
<path d="M74.1743 52.3449C74.1743 55.0952 73.3587 57.7837 71.8308 60.0704C70.3028 62.3572 68.1311 64.1395 65.5902 65.192C63.0493 66.2444 60.2534 66.5198 57.556 65.9833C54.8586 65.4467 52.3808 64.1223 50.4361 62.1776C48.4914 60.2329 47.167 57.7552 46.6305 55.0578C46.0939 52.3604 46.3693 49.5644 47.4218 47.0235C48.4743 44.4827 50.2566 42.3109 52.5433 40.783C54.8301 39.255 57.5185 38.4395 60.2688 38.4395C63.9567 38.4395 67.4937 39.9045 70.1015 42.5123C72.7092 45.1201 74.1743 48.657 74.1743 52.3449Z" fill="#152350"/>
<mask id="mask1_268_77" style="mask-type:luminance" maskUnits="userSpaceOnUse" x="46" y="38" width="29" height="29">
<path d="M74.1743 52.3449C74.1743 55.0952 73.3587 57.7837 71.8308 60.0704C70.3028 62.3572 68.1311 64.1395 65.5902 65.192C63.0493 66.2444 60.2534 66.5198 57.556 65.9833C54.8586 65.4467 52.3808 64.1223 50.4361 62.1776C48.4914 60.2329 47.167 57.7552 46.6305 55.0578C46.0939 52.3604 46.3693 49.5644 47.4218 47.0235C48.4743 44.4827 50.2566 42.3109 52.5433 40.783C54.8301 39.255 57.5185 38.4395 60.2688 38.4395C63.9567 38.4395 67.4937 39.9045 70.1015 42.5123C72.7092 45.1201 74.1743 48.657 74.1743 52.3449Z" fill="white"/>
</mask>
<g mask="url(#mask1_268_77)">
<path style="mix-blend-mode:lighten" opacity="0.4" d="M74.1743 42.3489C74.1743 45.0991 73.3587 47.7876 71.8308 50.0743C70.3028 52.3611 68.1311 54.1434 65.5902 55.1959C63.0493 56.2483 60.2534 56.5237 57.556 55.9872C54.8586 55.4506 52.3808 54.1262 50.4361 52.1815C48.4914 50.2368 47.167 47.7591 46.6305 45.0617C46.0939 42.3643 46.3693 39.5684 47.4218 37.0275C48.4743 34.4866 50.2566 32.3148 52.5433 30.7869C54.8301 29.2589 57.5185 28.4434 60.2688 28.4434C63.9566 28.4438 67.4933 29.909 70.101 32.5167C72.7087 35.1244 74.1738 38.661 74.1743 42.3489Z" fill="url(#paint2_linear_268_77)"/>
</g>
<path d="M169.047 37.7874L179.248 27.5859C179.248 27.5859 195.509 50.4197 179.248 77.1009L169.053 66.9061C169.053 66.9061 176.763 53.7681 169.047 37.7874Z" fill="#152350"/>
<path d="M153.635 52.3449C153.635 55.0957 152.82 57.7847 151.292 60.072C149.764 62.3592 147.592 64.142 145.05 65.1948C142.509 66.2476 139.713 66.5232 137.015 65.9866C134.317 65.45 131.839 64.1255 129.894 62.1804C127.949 60.2354 126.624 57.7572 126.087 55.0593C125.551 52.3615 125.826 49.5651 126.879 47.0238C127.932 44.4825 129.715 42.3106 132.002 40.7825C134.289 39.2545 136.978 38.4391 139.729 38.4395C143.417 38.4399 146.954 39.9051 149.561 42.5128C152.169 45.1205 153.634 48.6571 153.635 52.3449Z" fill="#152350"/>
<mask id="mask2_268_77" style="mask-type:luminance" maskUnits="userSpaceOnUse" x="125" y="38" width="29" height="29">
<path d="M153.608 52.3449C153.608 55.0952 152.792 57.7837 151.264 60.0704C149.736 62.3572 147.565 64.1395 145.024 65.192C142.483 66.2444 139.687 66.5198 136.99 65.9833C134.292 65.4467 131.814 64.1223 129.87 62.1776C127.925 60.2329 126.601 57.7552 126.064 55.0578C125.528 52.3604 125.803 49.5644 126.855 47.0235C127.908 44.4827 129.69 42.3109 131.977 40.783C134.264 39.255 136.952 38.4395 139.702 38.4395C143.39 38.4395 146.927 39.9045 149.535 42.5123C152.143 45.1201 153.608 48.657 153.608 52.3449Z" fill="white"/>
</mask>
<g mask="url(#mask2_268_77)">
<path style="mix-blend-mode:lighten" opacity="0.4" d="M153.608 42.3489C153.608 45.0991 152.792 47.7876 151.264 50.0743C149.736 52.3611 147.565 54.1434 145.024 55.1959C142.483 56.2483 139.687 56.5237 136.99 55.9872C134.292 55.4506 131.814 54.1262 129.87 52.1815C127.925 50.2368 126.601 47.7591 126.064 45.0617C125.528 42.3643 125.803 39.5684 126.855 37.0275C127.908 34.4866 129.69 32.3148 131.977 30.7869C134.264 29.2589 136.952 28.4434 139.702 28.4434C143.39 28.4438 146.927 29.909 149.535 32.5167C152.142 35.1244 153.607 38.661 153.608 42.3489Z" fill="url(#paint3_linear_268_77)"/>
</g>
<path d="M146.022 52.6857C149.416 52.6857 152.168 49.9338 152.168 46.5391C152.168 43.1445 149.416 40.3926 146.022 40.3926C142.627 40.3926 139.875 43.1445 139.875 46.5391C139.875 49.9338 142.627 52.6857 146.022 52.6857Z" fill="white"/>
<path d="M66.5841 52.6857C69.9787 52.6857 72.7306 49.9338 72.7306 46.5391C72.7306 43.1445 69.9787 40.3926 66.5841 40.3926C63.1894 40.3926 60.4375 43.1445 60.4375 46.5391C60.4375 49.9338 63.1894 52.6857 66.5841 52.6857Z" fill="white"/>
</g>
<defs>
<linearGradient id="paint0_linear_268_77" x1="20.5391" y1="52.3435" x2="99.9995" y2="52.3435" gradientUnits="userSpaceOnUse">
<stop stop-color="white"/>
<stop offset="1" stop-color="white" stop-opacity="0"/>
</linearGradient>
<linearGradient id="paint1_linear_268_77" x1="99.9727" y1="52.3435" x2="179.433" y2="52.3435" gradientUnits="userSpaceOnUse">
<stop stop-color="white"/>
<stop offset="1" stop-color="white" stop-opacity="0"/>
</linearGradient>
<linearGradient id="paint2_linear_268_77" x1="46.3633" y1="42.3505" x2="74.1743" y2="42.3505" gradientUnits="userSpaceOnUse">
<stop stop-color="white"/>
<stop offset="1" stop-color="white" stop-opacity="0"/>
</linearGradient>
<linearGradient id="paint3_linear_268_77" x1="125.797" y1="42.3505" x2="153.608" y2="42.3505" gradientUnits="userSpaceOnUse">
<stop stop-color="white"/>
<stop offset="1" stop-color="white" stop-opacity="0"/>
</linearGradient>
<clipPath id="clip0_268_77">
<rect width="200" height="99.0332" fill="white"/>
</clipPath>
</defs>
</svg>
