<svg width="146" height="145" viewBox="0 0 146 145" fill="none" xmlns="http://www.w3.org/2000/svg">
<path d="M74.9569 1.68144C74.0694 0.464264 72.2057 0.628064 71.5441 1.9814L62.7883 19.8915C62.3407 20.8072 61.276 21.2397 60.3166 20.8957L35.5346 12.0106C34.1267 11.5059 32.6832 12.6685 32.8764 14.1516L35.7487 36.202C35.8894 37.282 35.14 38.2761 34.063 38.4381L8.14479 42.3375C6.63581 42.5646 5.92672 44.3298 6.85936 45.5376L20.3602 63.0214C21.003 63.8538 20.8913 65.0418 20.1046 65.7398L1.19463 82.518C0.0803619 83.5066 0.399235 85.3228 1.78365 85.8727L21.8741 93.8534C22.8059 94.2235 23.3196 95.2264 23.0756 96.1989L17.0809 120.085C16.7257 121.5 17.9566 122.807 19.3906 122.537L41.7324 118.333C42.7383 118.144 43.7248 118.744 44.0183 119.725L50.9673 142.94C51.3879 144.345 53.1275 144.835 54.2191 143.855L71.6659 128.199C72.4258 127.517 73.5775 127.517 74.3375 128.199L91.6858 143.767C92.8013 144.768 94.5808 144.232 94.9574 142.781L100.56 121.202C100.813 120.228 101.749 119.594 102.746 119.72L126.513 122.715C127.978 122.9 129.131 121.487 128.657 120.089L121.567 99.1661C121.244 98.2134 121.679 97.1692 122.582 96.7274L144.208 86.1549C145.573 85.4877 145.725 83.6029 144.485 82.7255L127.951 71.0253C127.124 70.4404 126.865 69.3298 127.348 68.4395L139.623 45.7971C140.346 44.4644 139.381 42.8439 137.865 42.8439H116.913C115.844 42.8439 114.964 42.0029 114.915 40.9347L113.693 14.0472C113.626 12.5845 112.062 11.6867 110.765 12.3671L92.0303 22.198C91.1523 22.6587 90.0692 22.4066 89.485 21.6054L74.9569 1.68144Z" fill="#FAEB36"/>
</svg>
